<svg xmlns="http://www.w3.org/2000/svg" width="832.038" height="646" viewBox="0 0 832.038 646">
  <g id="message" transform="translate(0.005 0)">
    <path id="Path_482" data-name="Path 482" d="M710.363,771.357s-12.753-31.391,25.505-54.934Z" transform="translate(-183.986 -127)" fill="#e6e6e6"/>
    <path id="Path_483" data-name="Path 483" d="M694.68,770.786s-3.89-22.374-34-22.182Z" transform="translate(-183.986 -127)" fill="#e6e6e6"/>
    <path id="Path_482-2" data-name="Path 482" d="M982.319,771.357s-16.848-41.472,33.7-72.575Z" transform="translate(-183.986 -127)" fill="#e6e6e6"/>
    <path id="Path_483-2" data-name="Path 483" d="M961.6,770.6s-5.139-29.559-44.919-29.3" transform="translate(-183.986 -127)" fill="#e6e6e6"/>
    <path id="Path_6" data-name="Path 6" d="M281.557,355.92q0,.825-.053,1.636a24.782,24.782,0,0,1-2.322,9c-.01.024-.022.047-.033.069-.062.131-.126.262-.191.391a24.479,24.479,0,0,1-1.319,2.327,24.9,24.9,0,0,1-20.438,11.5l.247,14.177,3.215-1.693.574,1.091-3.765,1.982.46,26.33.005.352-2.486.553.005-.353.783-42.438a24.854,24.854,0,0,1-17.584-7.651c-.157-.162-.312-.329-.464-.495l-.017-.019a24.956,24.956,0,0,1-4.541-7.026c.024.028.05.053.074.081A24.934,24.934,0,0,1,245.53,333.6l.26-.128a24.953,24.953,0,0,1,32.328,9.814c.152.255.3.515.44.777a24.8,24.8,0,0,1,3,11.852Z" transform="translate(-183.986 -127)" fill="#e5e5e5"/>
    <circle id="Ellipse_3" data-name="Ellipse 3" cx="32.674" cy="32.674" r="32.674" transform="translate(61.541 174.287)" fill="#e5e5e5"/>
    <path id="Path_7" data-name="Path 7" d="M254.076,312.138a32.677,32.677,0,0,0,54.445,34.581,32.677,32.677,0,1,1-54.445-34.581Z" transform="translate(-183.986 -127)" opacity="0.2" style="isolation: isolate"/>
    <path id="Path_8" data-name="Path 8" d="M95.983,297.986l-3.337-.936.007-.359,1-54.35.05-2.71v-.079l.175-9.5.253-13.763h0l.172-9.329h.1l.176,10.107.229,13.155.164,9.334v.069l.007.385h0l.317,18.2.033,1.808.655,37.607Z" fill="#3f3d56"/>
    <rect id="Rectangle_15" data-name="Rectangle 15" width="6.104" height="1.616" transform="translate(94.101 258.835) rotate(-27.766)" fill="#3f3d56"/>
    <path id="Path_9" data-name="Path 9" d="M701.755,228.216A832.267,832.267,0,0,0,578,230.119c-19.832,1.793-39.979,3.729-59.444,8.055-15.679,3.484-33.875,9.374-43.644,23.09a22.291,22.291,0,0,0-3.48,19.514c2.329,7.819,8.124,14.328,14.294,19.426,14.2,11.733,31.824,18.561,47.565,27.882,28.74,17.02,55.043,39.96,71.926,69.1,7.429,12.823,14.5,29.874,6.224,44-8.1,13.843-26.2,18.612-40.95,20.861-18.493,2.819-37.541,2.054-56.111.476a584.635,584.635,0,0,1-60.651-8.883c-39.275-7.541-78.192-17.135-118.013-21.5a341.776,341.776,0,0,0-60.17-1.74c-18.124,1.223-36.4,4.089-53.43,10.625-13.12,5.036-27.106,12.655-34.193,25.362-6.832,12.249-4.167,26.374,3.272,37.675,8.95,13.6,22.907,22.915,37.418,29.726,16.522,7.754,34.193,12.78,51.887,17.055,8.974,2.168,18,4.128,27.02,6.078,1.882.407,2.687-2.485.8-2.893-18.2-3.932-36.445-7.877-54.189-13.568-16.42-5.267-33.225-12.014-46.672-23.074-10.879-8.948-21.222-22.017-20.58-36.876.647-14.979,13.215-25.438,25.534-31.876,15.4-8.045,32.885-11.964,50.024-14.012a303.94,303.94,0,0,1,59.091-.8c39.727,3.023,78.566,12.072,117.516,19.966,37.84,7.668,76.86,14.769,115.639,12.8,15.37-.78,31.839-2.982,45.41-10.74,6.214-3.552,11.816-8.561,14.974-15.081a33.774,33.774,0,0,0,2.581-19.845c-2.2-14.77-10.973-28.466-19.726-40.23a194.414,194.414,0,0,0-33.14-34.328A261.41,261.41,0,0,0,520.934,317.8c-8.238-4.337-16.593-8.508-24.445-13.532-7.528-4.817-14.953-10.613-19.55-18.432-3.976-6.763-4.7-14.482-.564-21.342,4.189-6.938,11.4-11.777,18.522-15.313,17.146-8.519,37.08-10.8,55.839-13.136a825.951,825.951,0,0,1,121.451-6.055q14.794.348,29.569,1.225c1.929.113,1.922-2.887,0-3Z" transform="translate(-183.986 -127)"/>
    <path id="Path_10" data-name="Path 10" d="M675.593,132.052l6.229-4.982c-4.839-.534-6.828,2.105-7.642,4.194-3.781-1.57-7.9.488-7.9.488l12.464,4.525a9.432,9.432,0,0,0-3.151-4.225Z" transform="translate(-183.986 -127)" fill="#3f3d56"/>
    <path id="Path_11" data-name="Path 11" d="M645.361,147.825l6.229-4.982c-4.839-.534-6.828,2.1-7.642,4.194-3.781-1.57-7.9.488-7.9.488l12.464,4.525a9.431,9.431,0,0,0-3.155-4.224Z" transform="translate(-183.986 -127)" fill="#3f3d56"/>
    <path id="Path_12" data-name="Path 12" d="M675.593,172.8l6.229-4.982c-4.839-.534-6.828,2.1-7.642,4.194-3.781-1.57-7.9.488-7.9.488l12.464,4.525a9.431,9.431,0,0,0-3.155-4.224Z" transform="translate(-183.986 -127)" fill="#3f3d56"/>
    <g id="Group_27" data-name="Group 27">
      <circle id="Ellipse_7" data-name="Ellipse 7" cx="18.768" cy="18.768" r="18.768" transform="translate(379.45 15.644)" fill="#ff6583"/>
      <path id="Path_63" data-name="Path 63" d="M641.059,219.247H548.986a1.884,1.884,0,0,1-.344-.027l43.547-75.42a3.048,3.048,0,0,1,5.307,0l29.224,50.61,1.4,2.422Z" transform="translate(-183.986 -127)" fill="#42405f"/>
      <path id="Path_65" data-name="Path 65" d="M692.321,219.248H612.687l15.431-22.414,1.11-1.615,20.108-29.21a4.068,4.068,0,0,1,6.044-.361,3.637,3.637,0,0,1,.29.361Z" transform="translate(-183.986 -127)" fill="#434162"/>
    </g>
    <path id="Path_34" data-name="Path 34" d="M10.563,0A10.563,10.563,0,1,1,0,10.563,10.563,10.563,0,0,1,10.563,0Z" transform="translate(141.027 419.874)" fill="#272548"/>
    <path id="Path_21" data-name="Path 21" d="M715.4,625.419l-9.779,3.633-18.668-35.99,14.433-5.362Z" fill="#ffb7b7"/>
    <path id="Path_22" data-name="Path 22" d="M905.4,760.971l-31.531,11.715-.148-.4a13.093,13.093,0,0,1,7.713-16.833h0l19.258-7.155Z" transform="translate(-183.986 -127)" fill="#2f2e41"/>
    <path id="Path_23" data-name="Path 23" d="M619.162,635.574H608.73l-4.963-40.238h15.4Z" fill="#ffb7b7"/>
    <path id="Path_24" data-name="Path 24" d="M804.958,772.686H771.32v-.425a13.093,13.093,0,0,1,13.092-13.093h20.546Z" transform="translate(-183.986 -127)" fill="#2f2e41"/>
    <path id="Path_25" data-name="Path 25" d="M850.91,483.5l-3.4-6.807-28.931,14.466.851,5.956-5.531,7.233s-9.36,5.106-7.658,22.124l1.7,16.167,2.127,20.848-14.891,51.481-7.658,68.074-5.531,54.884,26.8-1.276L833.465,647.3l43.4,96.154,29.782-7.658L865.8,640.5l-5.1-39.994s3.4-21.273-12.764-35.739l2.553-7.658v-9.437L859,502.65Z" transform="translate(-183.986 -127)" fill="#2f2e41"/>
    <rect id="Rectangle_17" data-name="Rectangle 17" width="68.961" height="1" transform="translate(648.999 520.17) rotate(-74.249)" opacity="0.2"/>
    <rect id="Rectangle_18" data-name="Rectangle 18" width="41.695" height="4.255" transform="translate(624.378 436.491)" fill="#3f3d56"/>
    <ellipse id="Ellipse_5" data-name="Ellipse 5" cx="1.702" cy="4.255" rx="1.702" ry="4.255" transform="translate(622.676 434.789)" fill="#3f3d56"/>
    <circle id="Ellipse_6" data-name="Ellipse 6" cx="22.682" cy="22.682" r="22.682" transform="translate(612.396 316.573) rotate(-28.663)" fill="#ffb7b7"/>
    <circle id="Ellipse_7-2" data-name="Ellipse 7" cx="20.066" cy="20.066" r="20.066" transform="translate(657.823 277.369)" fill="#2f2e41"/>
    <path id="Path_26" data-name="Path 26" d="M887.339,422.285a20.067,20.067,0,1,1-39.143,8.229,20.067,20.067,0,0,0,39.143-8.229Z" transform="translate(-183.986 -127)" fill="#2f2e41"/>
    <path id="Path_27" data-name="Path 27" d="M808.067,446.3a23.724,23.724,0,1,0,14.157-19.1c-3.963-3.2-8.876-2.2-12.87,1.167-4.517,3.814-5.857,6.433-9.36,12.7C803.439,441.556,804.622,445.817,808.067,446.3Z" transform="translate(-183.986 -127)" fill="#2f2e41"/>
    <path id="Path_28" data-name="Path 28" d="M891.441,514.511c-.254,6.722-.757,19.953-.757,20.628,0,.712-10.031,21.48-14.364,30.419h0c-.308.63-.585,1.2-.83,1.7a4.028,4.028,0,0,1-3.7,2.275l-18.937-.34a4.036,4.036,0,0,1-3.966-3.934l-2.112-83.315a2.06,2.06,0,0,1,2.058-2.112h24.422a5.491,5.491,0,0,1,4.94,3.1l11.721,24.25a15.5,15.5,0,0,1,1.528,7.32Z" transform="translate(-183.986 -127)" fill="#2b2948"/>
    <path id="Path_29" data-name="Path 29" d="M848.555,559.551a54.228,54.228,0,0,1-12.94-10.936,60.008,60.008,0,0,1-14.955-34.888c-.963-11.072,1.234-19.3,6.53-24.463,6.732-6.559,15.894-5.606,16.281-5.562l.41.046L850.089,489l-1.757,2.076-5.555-4.7c-1.7-.085-8.641-.1-13.712,4.856-4.667,4.565-6.584,12.054-5.7,22.258a57.308,57.308,0,0,0,14.208,33.237,52.656,52.656,0,0,0,12.29,10.44Z" transform="translate(-183.986 -127)" fill="#6c63ff"/>
    <rect id="Rectangle_19" data-name="Rectangle 19" width="33.78" height="0.906" transform="matrix(0.98, -0.201, 0.201, 0.98, 666.714, 407.696)" fill="#3f3d56"/>
    <rect id="Rectangle_20" data-name="Rectangle 20" width="0.907" height="52.695" transform="translate(677.093 352.865) rotate(-2.35)" fill="#3f3d56"/>
    <path id="Path_30" data-name="Path 30" d="M891.441,514.511c-.254,6.722-.757,19.953-.757,20.628,0,.712-10.031,21.48-14.364,30.419l8.077-46.9a10.338,10.338,0,0,1,6.713-7.973A15.215,15.215,0,0,1,891.441,514.511Z" transform="translate(-183.986 -127)" fill="#3f3d56"/>
    <path id="Path_31" data-name="Path 31" d="M841.815,612.8a7.979,7.979,0,0,0-2.6-11.957l1.642-18.159-10.792-3.689-1.958,25.677a8.022,8.022,0,0,0,13.7,8.128Z" transform="translate(-183.986 -127)" fill="#ffb7b7"/>
    <path id="Path_32" data-name="Path 32" d="M843.225,595.228l-19.123-.693.809-92.222a12.448,12.448,0,0,1,8.433-11.849,11.31,11.31,0,0,1,7.112-.006,12.45,12.45,0,0,1,8.422,12.742Z" transform="translate(-183.986 -127)" fill="#cbcbcb"/>
    <path id="Path_33" data-name="Path 33" d="M1010.987,773h-381a1,1,0,0,1,0-2h381a1,1,0,0,1,0,2Z" transform="translate(-183.986 -127)" fill="#cbcbcb"/>
  </g>
</svg>
